<svg width="453" height="213" viewBox="0 0 453 213" fill="none" xmlns="http://www.w3.org/2000/svg">
<path d="M74.5176 40.7781C74.0915 36.0906 72.1952 32.4471 68.8287 29.8477C65.5048 27.2056 60.7534 25.8846 54.5744 25.8846C50.4835 25.8846 47.0744 26.4173 44.3472 27.4826C41.6199 28.548 39.5744 30.0181 38.2108 31.8931C36.8472 33.7255 36.144 35.8349 36.1014 38.2213C36.0162 40.1815 36.3997 41.9073 37.252 43.3988C38.1469 44.8903 39.4253 46.2113 41.0872 47.3619C42.7918 48.4698 44.8372 49.4499 47.2236 50.3022C49.61 51.1545 52.2946 51.9002 55.2776 52.5394L66.5276 55.0963C73.0048 56.5025 78.7151 58.3775 83.658 60.7213C88.644 63.065 92.82 65.8562 96.187 69.0948C99.596 72.3335 102.174 76.0622 103.921 80.2809C105.668 84.4997 106.563 89.2298 106.606 94.4713C106.563 102.738 104.475 109.833 100.341 115.757C96.208 121.68 90.263 126.218 82.508 129.372C74.7946 132.525 65.4835 134.102 54.5744 134.102C43.6227 134.102 34.0773 132.461 25.9381 129.18C17.7989 125.899 11.4707 120.913 6.95369 114.223C2.43669 107.532 0.114189 99.074 -0.0136108 88.8463H30.2847C30.5403 93.065 31.6696 96.581 33.6724 99.393C35.6753 102.206 38.4239 104.336 41.9182 105.785C45.4551 107.234 49.546 107.958 54.1909 107.958C58.4523 107.958 62.0744 107.383 65.0574 106.233C68.083 105.082 70.4054 103.484 72.0247 101.439C73.644 99.393 74.475 97.049 74.5176 94.4073C74.475 91.9357 73.708 89.8264 72.2165 88.0792C70.725 86.2894 68.4239 84.7553 65.3131 83.4769C62.2449 82.1559 58.3244 80.9414 53.5517 79.8335L39.8727 76.6374C28.5375 74.038 19.6099 69.8406 13.0901 64.0451C6.57019 58.207 3.33149 50.3235 3.37419 40.3945C3.33149 32.298 5.50479 25.2028 9.89399 19.109C14.2832 13.0153 20.3557 8.2639 28.1114 4.85478C35.8671 1.44568 44.7094 -0.258873 54.6384 -0.258873C64.7804 -0.258873 73.5801 1.46699 81.038 4.91869C88.538 8.3278 94.354 13.1218 98.488 19.3008C102.621 25.4798 104.731 32.6389 104.816 40.7781H74.5176ZM122.586 169.258V34.2582H153.523V51.0693H154.482C155.761 48.0863 157.572 45.2099 159.915 42.44C162.302 39.6701 165.327 37.4116 168.992 35.6644C172.699 33.8747 177.131 32.9798 182.288 32.9798C189.106 32.9798 195.476 34.7695 201.4 38.3491C207.366 41.9286 212.181 47.4471 215.846 54.9045C219.511 62.3619 221.343 71.8647 221.343 83.413C221.343 94.5352 219.574 103.846 216.038 111.346C212.543 118.846 207.813 124.471 201.847 128.221C195.924 131.971 189.34 133.846 182.096 133.846C177.153 133.846 172.87 133.037 169.248 131.417C165.626 129.798 162.579 127.667 160.107 125.025C157.678 122.383 155.803 119.549 154.482 116.524H153.843V169.258H122.586ZM153.204 83.3491C153.204 88.6332 153.907 93.2355 155.313 97.156C156.762 101.076 158.829 104.123 161.513 106.297C164.241 108.427 167.501 109.493 171.293 109.493C175.128 109.493 178.388 108.427 181.073 106.297C183.758 104.123 185.782 101.076 187.145 97.156C188.552 93.2355 189.255 88.6332 189.255 83.3491C189.255 78.065 188.552 73.484 187.145 69.6062C185.782 65.7284 183.758 62.7241 181.073 60.5934C178.431 58.4627 175.171 57.3974 171.293 57.3974C167.458 57.3974 164.198 58.4414 161.513 60.5295C158.829 62.6176 156.762 65.6005 155.313 69.4784C153.907 73.3562 153.204 77.9798 153.204 83.3491ZM283.553 134.294C273.241 134.294 264.377 132.184 256.963 127.966C249.59 123.704 243.901 117.781 239.896 110.196C235.933 102.568 233.951 93.7255 233.951 83.6687C233.951 73.5693 235.933 64.7269 239.896 57.1417C243.901 49.5139 249.59 43.5906 256.963 39.3718C264.377 35.1105 273.241 32.9798 283.553 32.9798C293.866 32.9798 302.708 35.1105 310.08 39.3718C317.495 43.5906 323.184 49.5139 327.147 57.1417C331.153 64.7269 333.156 73.5693 333.156 83.6687C333.156 93.7255 331.153 102.568 327.147 110.196C323.184 117.781 317.495 123.704 310.08 127.966C302.708 132.184 293.866 134.294 283.553 134.294ZM283.745 110.707C287.495 110.707 290.67 109.556 293.269 107.255C295.869 104.954 297.85 101.758 299.214 97.667C300.62 93.5764 301.323 88.8463 301.323 83.4769C301.323 78.0224 300.62 73.2497 299.214 69.1588C297.85 65.0678 295.869 61.8718 293.269 59.5707C290.67 57.2695 287.495 56.119 283.745 56.119C279.867 56.119 276.586 57.2695 273.901 59.5707C271.259 61.8718 269.235 65.0678 267.829 69.1588C266.465 73.2497 265.784 78.0224 265.784 83.4769C265.784 88.8463 266.465 93.5764 267.829 97.667C269.235 101.758 271.259 104.954 273.901 107.255C276.586 109.556 279.867 110.707 283.745 110.707ZM404.587 34.2582V57.2695H342.648V34.2582H404.587ZM355.624 10.7355H386.881V101.566C386.881 103.484 387.179 105.039 387.776 106.233C388.415 107.383 389.331 108.214 390.524 108.726C391.718 109.194 393.145 109.429 394.807 109.429C396 109.429 397.257 109.322 398.578 109.109C399.942 108.853 400.965 108.64 401.647 108.47L406.377 131.034C404.885 131.46 402.776 131.993 400.049 132.632C397.364 133.271 394.147 133.676 390.397 133.846C383.067 134.187 376.781 133.335 371.54 131.289C366.341 129.201 362.357 125.963 359.587 121.574C356.86 117.184 355.539 111.666 355.624 105.018V10.7355Z" fill="white"/>
<path d="M168.667 158.792H176.445L194.735 203.465H195.366L213.656 158.792H221.434V212.61H215.337V171.721H214.812L197.994 212.61H192.107L175.289 171.721H174.764V212.61H168.667V158.792ZM250.058 213.451C246.414 213.451 243.217 212.584 240.466 210.849C237.733 209.115 235.596 206.689 234.054 203.57C232.53 200.452 231.768 196.808 231.768 192.638C231.768 188.434 232.53 184.764 234.054 181.628C235.596 178.492 237.733 176.057 240.466 174.322C243.217 172.588 246.414 171.721 250.058 171.721C253.702 171.721 256.89 172.588 259.623 174.322C262.374 176.057 264.511 178.492 266.035 181.628C267.577 184.764 268.348 188.434 268.348 192.638C268.348 196.808 267.577 200.452 266.035 203.57C264.511 206.689 262.374 209.115 259.623 210.849C256.89 212.584 253.702 213.451 250.058 213.451ZM250.058 207.88C252.826 207.88 255.103 207.17 256.89 205.751C258.677 204.332 260 202.467 260.858 200.154C261.717 197.842 262.146 195.336 262.146 192.638C262.146 189.94 261.717 187.427 260.858 185.096C260 182.766 258.677 180.883 256.89 179.447C255.103 178.01 252.826 177.292 250.058 177.292C247.29 177.292 245.012 178.01 243.225 179.447C241.439 180.883 240.116 182.766 239.257 185.096C238.399 187.427 237.97 189.94 237.97 192.638C237.97 195.336 238.399 197.842 239.257 200.154C240.116 202.467 241.439 204.332 243.225 205.751C245.012 207.17 247.29 207.88 250.058 207.88ZM306.405 181.286L300.834 182.863C300.484 181.934 299.967 181.032 299.284 180.156C298.618 179.263 297.707 178.527 296.551 177.949C295.395 177.371 293.914 177.082 292.11 177.082C289.64 177.082 287.581 177.651 285.934 178.79C284.305 179.911 283.491 181.339 283.491 183.073C283.491 184.615 284.051 185.832 285.172 186.726C286.294 187.619 288.045 188.364 290.428 188.959L296.42 190.431C300.028 191.307 302.718 192.647 304.487 194.452C306.256 196.239 307.141 198.542 307.141 201.363C307.141 203.675 306.475 205.743 305.144 207.565C303.83 209.387 301.991 210.823 299.625 211.874C297.26 212.925 294.51 213.451 291.374 213.451C287.257 213.451 283.85 212.557 281.152 210.77C278.454 208.984 276.746 206.373 276.027 202.94L281.914 201.468C282.474 203.64 283.534 205.27 285.094 206.356C286.67 207.442 288.729 207.985 291.269 207.985C294.16 207.985 296.455 207.372 298.154 206.145C299.871 204.902 300.729 203.413 300.729 201.678C300.729 200.277 300.239 199.103 299.258 198.157C298.277 197.193 296.77 196.475 294.738 196.002L288.01 194.425C284.314 193.549 281.599 192.192 279.864 190.352C278.147 188.495 277.289 186.174 277.289 183.388C277.289 181.111 277.928 179.096 279.207 177.344C280.504 175.592 282.264 174.217 284.489 173.219C286.732 172.22 289.272 171.721 292.11 171.721C296.104 171.721 299.24 172.597 301.518 174.349C303.813 176.101 305.442 178.413 306.405 181.286ZM332.874 213.451C329.09 213.451 325.832 212.557 323.099 210.77C320.366 208.984 318.263 206.522 316.792 203.386C315.32 200.25 314.584 196.668 314.584 192.638C314.584 188.539 315.338 184.921 316.844 181.785C318.369 178.632 320.488 176.171 323.204 174.401C325.937 172.614 329.125 171.721 332.769 171.721C335.607 171.721 338.165 172.246 340.442 173.297C342.72 174.349 344.586 175.82 346.04 177.712C347.494 179.604 348.396 181.812 348.746 184.334H342.545C342.072 182.495 341.021 180.866 339.391 179.447C337.78 178.01 335.607 177.292 332.874 177.292C330.457 177.292 328.337 177.922 326.515 179.184C324.71 180.428 323.3 182.188 322.284 184.466C321.285 186.726 320.786 189.38 320.786 192.428C320.786 195.547 321.277 198.262 322.258 200.574C323.256 202.887 324.658 204.683 326.462 205.962C328.284 207.24 330.422 207.88 332.874 207.88C334.486 207.88 335.949 207.6 337.263 207.039C338.577 206.478 339.689 205.672 340.6 204.621C341.511 203.57 342.159 202.309 342.545 200.837H348.746C348.396 203.22 347.529 205.366 346.145 207.275C344.778 209.168 342.965 210.674 340.705 211.795C338.463 212.899 335.852 213.451 332.874 213.451ZM374.21 213.451C370.566 213.451 367.369 212.584 364.619 210.849C361.886 209.115 359.748 206.689 358.207 203.57C356.682 200.452 355.92 196.808 355.92 192.638C355.92 188.434 356.682 184.764 358.207 181.628C359.748 178.492 361.886 176.057 364.619 174.322C367.369 172.588 370.566 171.721 374.21 171.721C377.854 171.721 381.043 172.588 383.776 174.322C386.526 176.057 388.663 178.492 390.187 181.628C391.729 184.764 392.5 188.434 392.5 192.638C392.5 196.808 391.729 200.452 390.187 203.57C388.663 206.689 386.526 209.115 383.776 210.849C381.043 212.584 377.854 213.451 374.21 213.451ZM374.21 207.88C376.978 207.88 379.256 207.17 381.043 205.751C382.83 204.332 384.152 202.467 385.011 200.154C385.869 197.842 386.298 195.336 386.298 192.638C386.298 189.94 385.869 187.427 385.011 185.096C384.152 182.766 382.83 180.883 381.043 179.447C379.256 178.01 376.978 177.292 374.21 177.292C371.442 177.292 369.165 178.01 367.378 179.447C365.591 180.883 364.268 182.766 363.41 185.096C362.551 187.427 362.122 189.94 362.122 192.638C362.122 195.336 362.551 197.842 363.41 200.154C364.268 202.467 365.591 204.332 367.378 205.751C369.165 207.17 371.442 207.88 374.21 207.88ZM409.739 212.61L397.44 172.246H403.957L412.682 203.15H413.102L421.722 172.246H428.344L436.858 203.045H437.278L446.003 172.246H452.52L440.222 212.61H434.125L425.295 181.601H424.665L415.835 212.61H409.739Z" fill="white"/>
</svg>
